<svg width="27" height="31" viewBox="0 0 27 31" fill="none" xmlns="http://www.w3.org/2000/svg">
    <path d="M12 2.86603C12.9282 2.33013 14.0718 2.33013 15 2.86603L23.6913 7.88397C24.6195 8.41987 25.1913 9.41025 25.1913 10.4821V20.5179C25.1913 21.5897 24.6195 22.5801 23.6913 23.116L15 28.134C14.0718 28.6699 12.9282 28.6699 12 28.134L3.30866 23.116C2.38045 22.5801 1.80866 21.5897 1.80866 20.5179V10.4821C1.80866 9.41025 2.38045 8.41987 3.30866 7.88397L12 2.86603Z" fill="white" stroke="black" stroke-width="3"/>
    <path d="M10.1043 13.041C7.94835 14.4443 7.5679 17.3783 8.07518 18.3988C8.58246 19.4193 11.0301 20.695 13.6553 19.5469C16.2805 18.3988 20.25 11 20.25 11C20.25 11 12.2603 11.6378 10.1043 13.041Z" fill="black"/>
    <path d="M10.8587 15.8375C10.1439 16.3512 7.79348 18.3125 6.75 19.325L7.1413 20C7.92391 19.25 10.2155 16.9993 10.663 16.625C11.7391 15.725 13.9891 14.375 15.75 13.25C14.4457 13.9625 11.6413 15.275 10.8587 15.8375Z" fill="white"/>
</svg>