<svg width="52" height="56" viewBox="0 0 52 56" fill="none" xmlns="http://www.w3.org/2000/svg">
<path d="M23.5 3.44338C25.047 2.55021 26.953 2.55021 28.5 3.44338L46.0167 13.5566C47.5637 14.4498 48.5167 16.1004 48.5167 17.8868V38.1132C48.5167 39.8996 47.5637 41.5502 46.0167 42.4434L28.5 52.5566C26.953 53.4498 25.047 53.4498 23.5 52.5566L5.98334 42.4434C4.43633 41.5502 3.48334 39.8996 3.48334 38.1132V17.8868C3.48334 16.1004 4.43633 14.4498 5.98334 13.5566L23.5 3.44338Z" stroke="white" stroke-width="5"/>
<path d="M19.4601 23.2642C15.3079 25.9667 14.5752 31.6174 15.5522 33.5828C16.5291 35.5483 21.2431 38.0051 26.2991 35.7939C31.355 33.5828 39 19.3333 39 19.3333C39 19.3333 23.6124 20.5617 19.4601 23.2642Z" fill="white"/>
<path d="M20.913 28.65C19.5364 29.6395 15.0097 33.4167 13 35.3667L13.7536 36.6667C15.2609 35.2222 19.6743 30.8876 20.5362 30.1667C22.6087 28.4334 26.942 25.8334 30.3333 23.6667C27.8213 25.0389 22.4203 27.5667 20.913 28.65Z" fill="#159800"/>
</svg>
